<svg transform="scale(1)" id="UxhGXiNgHa" xmlns="http://www.w3.org/2000/svg" viewBox="0 0 500 500" class="pbimage_pbimage__wrapper__image__0LEis false"><title>Password 4</title><defs><style> .cls-1{fill:#d6b2a4;} .cls-2{fill:#fff;} .cls-3{fill:#ffde91;} .cls-4{fill:#af93a2;} .cls-5{fill:#292e54;} .cls-6{fill:#e6e7e8;}
 .cls-6{fill:#E6E7E8;}
 .cls-5{fill:#292E54;}
 .cls-4{fill:#AF93A2;}
 .cls-3{fill:#FFDE91;}
 .cls-2{fill:#FFFFFF;}
 .cls-1{fill:#D6B2A4;}</style></defs><g id="shadow"><path class="cls-6" d="M89.8,421.49c-5.13,1.42-10.4,2.9-14.6,6.02-4.2,3.12-7.16,8.3-5.98,13.35,1.71,7.34,10.58,10.71,18.25,12.35,46.32,9.92,95.94,.95,135.37-22.94,8.31-5.04,50.51-31.34,34.78-42.21-7.44-5.14-21.01-1.78-28.91-.36-14.63,2.62-29.16,5.68-43.61,9-32.03,7.36-63.66,16.08-95.28,24.81Z" fill="#E6E7E8"></path><path class="cls-6" d="M282.63,421.74c-2.25,1.07-4.71,2.86-4.55,5.35,.19,2.97,3.84,4.25,6.8,4.53,7.87,.74,15.91-.41,23.25-3.35,3.6-1.44,8.03-3.2,11.01-.71,2.84,2.37,2.14,6.83,3.17,10.39,1.59,5.44,7.74,8.67,13.39,8.24,5.65-.43,10.71-3.82,14.61-7.94,2.8-2.97,5.2-6.47,6.07-10.46s-.01-8.51-2.95-11.34c-2.47-2.38-6-3.28-9.39-3.84-11.73-1.94-22.59-.17-33.99,2.57-9.14,2.2-18.84,2.48-27.42,6.57Z" fill="#E6E7E8"></path></g><g id="key"><path class="cls-1" d="M40.37,195.82c-10.18,5.32-20.86,11.09-26.84,20.9-7.62,12.5-5.79,28.35-3.7,42.84,4.36,30.26,8.72,60.52,13.08,90.78,2.03,14.1,4.44,29.05,13.8,39.79,11.05,12.68,29.72,16.46,46.32,13.73,16.6-2.72,31.72-10.94,46.48-19.03,26.23-14.38,52.45-28.75,78.68-43.13,16.08-8.82,33.53-19.23,39.06-36.72,3.5-11.07,1.49-23.03-.55-34.46-5.75-32.22-11.51-64.49-20.11-96.06-6.65-24.42-22.62-43.52-49.51-36.95-30.91,7.55-60.5,20.21-89.06,34.04-16.04,7.76-31.85,16.01-47.64,24.26Z"></path><path class="cls-2" d="M83.28,393.46c-7.46,0-14.31-5.19-17.98-10.77-4.74-7.22-6.26-16.16-7.6-24.04-4.9-28.93-9.97-58.79-13.89-88.32-1.67-12.53-2.79-25.65,3.16-36.31,5.64-10.08,16.68-16.05,25.55-20.85l123.18-66.6c.24-.13,.55-.04,.68,.2,.13,.24,.04,.55-.2,.68l-123.18,66.6c-8.76,4.74-19.66,10.63-25.15,20.46-5.81,10.39-4.69,23.33-3.04,35.69,3.92,29.51,8.98,59.37,13.88,88.24,1.33,7.84,2.83,16.66,7.46,23.71,4.11,6.26,12.38,12.01,20.81,9.85,.27-.07,.54,.09,.61,.36,.07,.27-.09,.54-.36,.61-1.32,.34-2.63,.49-3.92,.49Z"></path><path class="cls-4" d="M112.73,245.87c-2.46-14.19,2.94-29.5,13.76-39.01,6.99-6.14,16.48-9.93,25.66-8.43,15.05,2.46,24.87,18.41,25.61,33.65,.52,10.7-2.35,21.1-6.19,31.2-2.94,7.73-1.53,16.37,3.6,22.86,3.89,4.92,7.48,10.09,10.73,15.45,2.39,3.95,1.12,9.12-2.88,11.44-11.61,6.73-23.81,12.44-36.41,17.07-4.62,1.7-9.1-2.74-7.58-7.43,2.9-8.94,5.1-18.1,6.6-27.38,.77-4.77,1.5-13.13-2.53-16.83-2.9-2.67-7.93-2.28-11.48-4.21-9.93-5.42-17-17.52-18.88-28.37Z"></path><path class="cls-1" d="M27.78,143.58c0-23.28,6.93-47.4,23.29-63.96,10.45-10.57,24.07-17.47,38.06-22.49,14.23-5.1,30.34-8.35,44.17-2.24,9.21,4.07,16.34,11.93,21.32,20.69,4.98,8.75,8.04,18.45,11.07,28.05,3.99,12.67,8.03,25.83,6.35,39.01-.58,4.51-1.89,9.07-4.76,12.6s-7.53,5.84-12,5c-7.52-1.43-10.84-10.18-12.48-17.66-2.88-13.1-4.8-26.61-10.49-38.76-5.69-12.15-16.08-23.07-29.32-25.21-15.85-2.56-31.67,8.59-38.35,23.19-6.68,14.59-5.74,31.64-1.76,47.19,2.18,8.52,5.23,16.85,6.59,25.54,1.36,8.69,.86,18.05-3.65,25.61-7.03,11.79-22.9,16.16-28.02,1.6-6.39-18.19-10.01-38.91-10-58.17Z"></path><path class="cls-2" d="M74.76,198.05c-.17,0-.33-.08-.42-.23-3.76-5.92-5.75-13.03-5.6-20.04,0-.28,.27-.5,.51-.49,.28,0,.5,.23,.49,.51-.15,6.81,1.78,13.73,5.44,19.48,.15,.23,.08,.54-.15,.69-.08,.05-.18,.08-.27,.08Z"></path></g><g id="character"><path class="cls-4" d="M293.93,420.61c-.9-.1-1.81-.22-2.6-.67s-1.41-1.29-1.33-2.19c.12-1.39,1.69-2.11,3.02-2.52,5.94-1.82,12.07-3.19,18.25-3.92,2.85-.33,8.88-1.32,10.48,2.01,4.06,8.46-23.85,7.71-27.82,7.27Z"></path><path class="cls-4" d="M337.77,409.72c-2.12-.43-4.33,.54-5.91,2.01-1.59,1.47-2.67,3.39-3.72,5.28-1.47,2.63-2.93,5.25-4.4,7.88-.45,.8-.9,1.78-.47,2.59,.34,.64,1.11,.9,1.82,1.08,5.27,1.32,15.83,1.52,19.23-3.9,2.71-4.31-1.63-13.95-6.55-14.93Z"></path><path class="cls-5" d="M343.07,415.55c-3.03-.19-6.07-.38-9.1-.56-1.97-33.05-3.94-66.1-5.91-99.15-.21-3.47-.88-7.63-4.09-8.97-2.69-1.12-5.88,.58-7.41,3.05-1.53,2.47-1.81,5.5-2.02,8.4-2.27,31.95-.65,64.18,4.84,95.74-2.83-.46-5.66-.92-8.48-1.38-4.04-41.77-8.07-84.18-.65-125.49,.88-4.9,2.05-10.03,5.44-13.66,5.77-6.18,20.33-7.52,26.79-1.53,6.28,5.84,.89,18.27-.3,25.24-4.29,25.01-5.72,50.51-4.27,75.84,.82,14.25,2.54,28.45,5.18,42.47Z"></path><path class="cls-2" d="M324.44,306.98c-.2,0-.38-.12-.46-.31-3.97-9.64-5.42-20.21-4.19-30.56,.03-.27,.29-.47,.56-.44,.27,.03,.47,.28,.44,.56-1.13,9.53,.04,19.24,3.4,28.22,1.24-9.59,3.94-18.88,8.04-27.65,.12-.25,.42-.36,.67-.24,.25,.12,.36,.41,.24,.67-4.33,9.27-7.09,19.14-8.19,29.31-.02,.23-.2,.41-.43,.44-.02,0-.05,0-.07,0Z"></path><path class="cls-4" d="M280.47,237.13c-3.35,3.2-7,6.32-8.92,10.54s-1.51,9.94,2.29,12.6c3.41,2.39,8.32,1.41,11.6-1.16s5.31-6.37,7.24-10.06c7.51-14.34,15.01-28.68,22.52-43.02,1.69-3.24,7.92-13.85,3-16.66-5.3-3.02-9.42,5.59-10.89,8.8-6.7,14.6-15.14,27.82-26.84,38.96Z"></path><path class="cls-3" d="M299.3,139.13c-2.28,.78-4.92,.73-6.99-.5-2.08-1.23-3.44-3.72-3.01-6.09,.43-2.37,2.86-4.3,5.24-3.88,1.76,.32,3.15,1.76,3.87,3.39,.72,1.63,.89,3.45,1.02,5.23"></path><path class="cls-5" d="M359.64,98.44c2.04,2.38,2.62,5.78,2.04,8.86-.58,3.08-2.21,5.88-4.15,8.34-4.87,6.16-11.95,10.55-19.64,12.18-3.39,.72-7.26,.8-9.95-1.39-3.49-2.85-3.46-8.21-2.22-12.55,1.83-6.44,6.09-14.7,12.92-16.88,6.08-1.94,16.29-4.07,21,1.43Z"></path><path class="cls-3" d="M294.55,131.56c3.77,11.79,9.48,23.16,18.12,32.04,3.33,3.42,8.04,6.65,12.55,5.06,3.87-1.36,5.75-5.66,7.1-9.53,3.17-9.05,5.93-18.33,6.78-27.88,.85-9.55-.3-19.46-4.62-28.02-4.32-8.56-12.04-15.64-21.35-17.93-7.75-1.9-23.73,.22-25.86,9.88-1.07,4.87,1.62,12.3,2.54,17.12,1.24,6.49,2.73,12.95,4.74,19.25Z"></path><path class="cls-5" d="M336.61,92.65c2.31,3.93,4.29,9.18,1.45,12.75-1.66,2.09-4.47,2.82-7.11,3.26-15.03,2.52-30.95-.72-43.81-8.9-12.86-8.18-22.53-21.24-26.6-35.93-1.57-5.65-3.51-16.52,2.98-20,5.26-2.83,13.44,1.01,18.38,2.89,14.61,5.56,27.99,14.33,38.96,25.47,6.05,6.15,11.37,13.02,15.75,20.46Z"></path><path class="cls-5" d="M317.45,127.09c-.19-1.19,.17-2.72,1.35-2.99,.87-.2,1.76,.45,2.13,1.27,.37,.82,.35,1.75,.32,2.64-.02,.56-.04,1.14-.25,1.66-.21,.52-.64,1-1.2,1.09-.69,.12-1.36-.38-1.67-1.01-.31-.62-.35-1.34-.38-2.04"></path><path class="cls-5" d="M307.06,125.71c-.51-.92,.31-2.25,1.36-2.21,.81,.03,1.48,.74,1.72,1.52,.24,.78,.16,1.62,.07,2.43-.07,.64-.15,1.3-.49,1.84-.35,.54-1.05,.9-1.64,.66-.64-.27-.84-1.06-.86-1.75-.03-.69,.02-1.44-.4-1.99"></path><path class="cls-3" d="M333.57,131.64c.53-3.5,4.04-6.27,7.56-5.99,3.53,.28,6.55,3.57,6.53,7.11s-3.09,6.79-6.62,7.03c-3.53,.23-7-2.58-7.49-6.09"></path><path class="cls-2" d="M334.8,128.74c-.07,0-.13-.01-.2-.04-.25-.11-.37-.4-.26-.66,.75-1.74,2.46-2.97,4.34-3.14,.26-.03,.52,.18,.54,.45,.02,.28-.18,.52-.45,.54-1.5,.13-2.92,1.16-3.51,2.54-.08,.19-.27,.3-.46,.3Z"></path><path class="cls-2" d="M297.7,140.62c-.2,0-.38-.12-.46-.31l-3.9-9.45c-.11-.26,.02-.55,.27-.65,.25-.1,.55,.02,.65,.27l3.9,9.45c.11,.26-.02,.55-.27,.65-.06,.03-.13,.04-.19,.04Z"></path><path class="cls-1" d="M335.8,188.65c9.31,25.71,13.89,52.85,18.43,79.82,.73,4.35,1.23,9.47-1.93,12.54-2.71,2.63-6.96,2.58-10.74,2.36-7.59-.44-15.19-.88-22.78-1.33-5.17-.3-10.86-.83-14.44-4.57-4.09-4.28-3.8-10.99-3.15-16.87,2.48-22.32,7.51-43.95,11.44-66,.93-5.2,1.09-14.56,6.42-17.55,8.07-4.51,14.52,5.44,16.75,11.6Z"></path><path class="cls-4" d="M322.3,181.5c-.64,3.56,3.11,6.21,6.32,7.87,22.5,11.62,44.87,23.5,67.11,35.62,4.44,2.42,9.62,6.59,7.98,11.37-1.31,3.82-6.11,4.92-10.14,5.27-10.97,.96-22.03,.86-32.98-.32,1.89,4.3,3.78,8.6,5.67,12.89,10.74,.96,22.02,1.84,31.87-2.53,9.85-4.37,17.42-15.92,13.54-25.98-1.95-5.06-6.3-8.76-10.64-12.02-13.65-10.26-28.84-18.43-44.91-24.19-6.03-2.16-11.72-3.79-17.23-7.08-3.44-2.05-15.06-9.52-16.6-.9Z"></path><path class="cls-5" d="M325.95,150.39c.55-.28,1.2-.57,1.67-.27,.64,.4,.44,1.5,.11,2.31-.78,1.91-1.92,3.68-3.31,5.18-.85,.92-1.9,1.77-3.03,1.82-.93,.04-1.74-.48-2.47-1.01-1.58-1.15-2.53-2.6-.41-4.15,2.22-1.62,5.05-2.65,7.44-3.88Z"></path><path class="cls-5" d="M477.65,187.3c-13.14-7.35-31.18-3.03-40.66,8.67,6.63-12.02,1.68-28.86-10.16-35.8-11.84-6.94-28.58-3.32-36.89,7.61-8.31,10.93-7.52,27.63,1.4,38.07-19.22,5.58-38.59,10.65-58.08,15.21-31.98,7.47-64.49,11.79-96.53,18.72-28.12,6.08-56.14,12.7-84.23,18.95-2.83,.63-4.74,3.27-4.45,6.16l.89,8.8c.42,4.15,4.18,7.12,8.31,6.58l13.22-1.75c-.06,5.56,.49,11.11,1.6,16.56,.04,3.93,1.78,8.43,1.78,11.79,.27,1.53,.64,3.18,1.86,4.14,1.14,.9,2.73,.94,4.18,.88,3.28-.15,6.54-.63,9.71-1.43,2.42-.61,4.92-1.49,6.49-3.43,2.11-2.6,1.95-6.32,1.47-9.63-.68-4.63-1.79-9.2-3.3-13.63l-1-8.77,24.46-8.33,1.75,26.36c.28,4.28,4.15,7.41,8.4,6.8l13.63-1.96c4.83-.7,8.1-5.29,7.18-10.08l-5.82-30.29c49.34-11.12,99.15-20.13,149.26-27-4.44,12.38,.21,27.43,10.86,35.15,10.65,7.72,26.4,7.45,36.78-.62,10.38-8.07,14.52-23.27,9.67-35.49,9.72,11.5,30.59,9.36,38.75-3.3,8.17-12.65,2.61-31.57-10.53-38.92Zm-78.05-6.54c4.62-15.01,25.3-6.74,21.97,6.84-1.46,5.96-8.53,9.8-14.38,7.93-5.85-1.87-9.4-8.9-7.59-14.77Zm27.62,68.89c-2.84,5.16-10.03,7.51-15.22,4.72-5.19-2.79-7.12-10.42-3.63-15.16,8.21-11.15,26.29-3.13,18.84,10.44Zm41.18-29.93c-5.77,2-12.67-.61-16.02-5.72-2.23-3.4-2.92-7.96-1.12-11.61,4.55-9.21,22.71-7.13,25.25,2.75,1.52,5.92-2.33,12.57-8.1,14.57Z"></path><path class="cls-3" d="M343.59,218.71c-3.6-1.48-8.4-2.21-10.84,.83-2.09,2.6-1.02,6.7,1.4,9,2.42,2.29,5.79,3.24,9.01,4.1-9.32,1.19-18.12,6.11-24,13.44-2.13,2.65-3.89,6.49-1.96,9.28,1.71,2.48,5.38,2.59,8.24,1.69,2.87-.91,5.54-2.57,8.54-2.8,5.52-.43,10.17,3.98,15.52,5.4,10.51,2.79,21.68-7.83,18.58-18.58-2.79-9.68-15.79-18.79-24.5-22.36Z"></path><path class="cls-3" d="M253.14,252.9c-.42-4.28,1.93-8.91,5.97-10.38,4.04-1.46,9.28,1.19,9.82,5.45,.53-3.24,3.4-5.75,6.58-6.6,3.17-.85,6.56-.3,9.69,.72,3.67,1.19,7.25,3.11,9.52,6.22,2.27,3.11,2.95,7.59,.88,10.84-2.15,3.37-6.45,4.57-10.4,5.2-10.89,1.72-30.52,4.09-32.05-11.45Z"></path></g></svg>