<svg transform="scale(1)" id="yU2ngdFefS" xmlns="http://www.w3.org/2000/svg" viewBox="0 0 500 500" class="pbimage_pbimage__wrapper__image__0LEis false"><title>Password 3</title><defs><style> .cls-1{fill:#d6b2a4;} .cls-2{fill:#fff;} .cls-3{fill:#3c4368;} .cls-4{fill:#ffde91;} .cls-5{fill:#af93a2;} .cls-6{fill:#292e54;} .cls-7{fill:#e6e7e8;} .cls-8{fill:#bcbec0;}
 .cls-8{fill:#BCBEC0;}
 .cls-7{fill:#E6E7E8;}
 .cls-6{fill:#292E54;}
 .cls-5{fill:#AF93A2;}
 .cls-4{fill:#FFDE91;}
 .cls-3{fill:#3C4368;}
 .cls-2{fill:#FFFFFF;}
 .cls-1{fill:#D6B2A4;}</style></defs><g id="land"><path class="cls-8" d="M22.81,420.22c-4.28,1.27-8.69,2.68-12.01,5.65-3.33,2.98-5.27,7.97-3.4,12.03,2.08,4.51,7.63,6.02,12.52,6.9,105.8,18.9,213.46-19.48,320.91-17.07,16.81,.38,33.67,1.75,50.39,.04,16.72-1.71,33.63-6.79,46.35-17.78,9.82-8.49,17.1-20.37,28.93-25.72,6.18-2.79,13.21-3.57,19.05-7.01s10.13-11.32,6.41-17c-2.85-4.35-8.76-5.19-13.94-5.62-30.52-2.52-61.52-5.01-91.54,1-23.08,4.62-44.88,14.15-67.68,20-39.07,10.04-79.79,9.14-119.41,15.76-15.79,2.64-31,8.2-47.05,8.86-20.22,.82-40.28,1.99-60.34,4.86-23.39,3.34-46.53,8.39-69.18,15.1Z" fill="#BCBEC0"></path><path class="cls-8" d="M380.75,440.57c7.4,.08,15.31,.49,22.49,2.37,6.99,1.83,6.07,12.08-1.12,12.77-48.13,4.59-96.46,7.32-144.8,7.17-7.23-.02-22.44,.12-26.84-7.32-4.59-7.77,17.42-7.25,22.89-7.92,26.82-3.28,53.77-5.43,80.77-6.45,15.53-.58,31.07-.79,46.61-.62Z" fill="#BCBEC0"></path></g><g id="coding-tab"><g id="presentation"><path class="cls-8" d="M115.28,56.08c.57,39.85,1.13,311.06,1.7,350.82,.06,4.23,.75,9.3,5.48,11.13,2.12,.82,4.6,.75,6.96,.66,11.81-.42,23.61-.85,35.4-1.27,37.85-1.36,75.6,.38,113.31-.97,7.91-.28,17.16-1.18,21.29-6.66,2.32-3.09,2.34-6.88,2.28-10.46-.58-36.32,.69-309.76,.11-346.16-.06-3.98-.25-8.27-3.25-11.4-4.5-4.71-13.14-4.82-20.59-4.6-31.51,.93-127.82,1.65-143.46,.97-13.9-.6-19.38,7.71-19.23,17.93Z"></path></g><path class="cls-3" d="M301.95,67.76c-.02-4.94-.06-9.82-.14-14.59-.06-3.98-.25-8.27-3.25-11.4-4.5-4.71-13.14-4.82-20.59-4.6-31.51,.93-127.82,1.65-143.46,.97-13.9-.6-19.38,7.71-19.23,17.93,.06,3.9,.11,7.79,.17,11.69h186.5Z"></path><path class="cls-2" d="M133.27,51.85c-.81,2.52-.03,5.49,1.94,7.27,1.96,1.78,5.02,2.25,7.41,1.12s3.98-3.8,3.79-6.45c-.55-7.4-10.76-9.36-13.13-1.94Z"></path><path class="cls-2" d="M150.73,51.04c-.93,3.37,1.2,7.28,4.54,8.31,3.34,1.03,7.31-1.03,8.38-4.36,2.67-8.34-10.5-12.71-12.91-3.95Z"></path><path class="cls-2" d="M168.31,49.29c-.45,1.64-.64,3.4-.16,5.04,.89,3.02,4.3,5.05,7.38,4.4,3.08-.65,5.38-3.88,4.97-7-.77-5.98-10.21-9.67-12.19-2.43Z"></path></g><g id="password"><path class="cls-8" d="M151.31,278.99c-1.1,2.46-.43,5.59,1.58,7.39,2.01,1.8,5.19,2.12,7.52,.76,2.33-1.36,3.61-4.3,3.03-6.93-.52-2.36-3.07-5.01-5.52-5.47-2.57-.49-5.64,2.06-6.62,4.25Z"></path><path class="cls-8" d="M171.8,278.99c-1.1,2.46-.43,5.59,1.58,7.39,2.01,1.8,5.19,2.12,7.52,.76,2.33-1.36,3.61-4.3,3.03-6.93-.52-2.36-3.07-5.01-5.52-5.47-2.57-.49-5.64,2.06-6.62,4.25Z"></path><path class="cls-2" d="M138.55,238.59c-3.21,3.93-3.45,9.84,.14,13.58,3.62,3.78,9.78,4.58,15.41,5.06,31.32,2.67,64.47,3.57,99.16,2,7.07-.32,14.55-.83,20.48-3.98s9.61-9.9,5.94-15.02c-1.95-2.72-5.55-4.47-9.28-5.32-3.71-.85-7.58-.9-11.38-.96-36.31-.5-70.7-.93-103.3-1.43-6.52-.1-13.21,1.21-17.17,6.07Z"></path><path class="cls-2" d="M138.55,273.16c-3.21,3.93-3.45,9.84,.14,13.58,3.62,3.78,9.78,4.58,15.41,5.06,31.32,2.67,64.47,3.57,99.16,2,7.07-.32,14.55-.83,20.48-3.98,5.99-3.18,9.61-9.9,5.94-15.02-1.95-2.72-5.55-4.47-9.28-5.32-3.71-.85-7.58-.9-11.38-.96-36.31-.5-70.7-.93-103.3-1.43-6.52-.1-13.21,1.21-17.17,6.07Z"></path><path class="cls-8" d="M151.31,278.99c-1.1,2.46-.43,5.59,1.58,7.39,2.01,1.8,5.19,2.12,7.52,.76,2.33-1.36,3.61-4.3,3.03-6.93-.52-2.36-3.07-5.01-5.52-5.47-2.57-.49-5.64,2.06-6.62,4.25Z"></path><path class="cls-8" d="M171.8,278.99c-1.1,2.46-.43,5.59,1.58,7.39,2.01,1.8,5.19,2.12,7.52,.76,2.33-1.36,3.61-4.3,3.03-6.93-.52-2.36-3.07-5.01-5.52-5.47-2.57-.49-5.64,2.06-6.62,4.25Z"></path><path class="cls-8" d="M233.86,278.99c-1.1,2.46-.43,5.59,1.58,7.39,2.01,1.8,5.19,2.12,7.52,.76s3.61-4.3,3.03-6.93c-.52-2.36-3.07-5.01-5.52-5.47-2.57-.49-5.64,2.06-6.62,4.25Z"></path><path class="cls-8" d="M254.35,278.99c-1.1,2.46-.43,5.59,1.58,7.39s5.19,2.12,7.52,.76c2.33-1.36,3.61-4.3,3.03-6.93-.52-2.36-3.07-5.01-5.52-5.47-2.57-.49-5.64,2.06-6.62,4.25Z"></path><path class="cls-8" d="M193.15,278.99c-1.1,2.46-.43,5.59,1.58,7.39,2.01,1.8,5.19,2.12,7.52,.76,2.33-1.36,3.61-4.3,3.03-6.93-.52-2.36-3.07-5.01-5.52-5.47-2.57-.49-5.64,2.06-6.62,4.25Z"></path><path class="cls-8" d="M213.65,278.99c-1.1,2.46-.43,5.59,1.58,7.39,2.01,1.8,5.19,2.12,7.52,.76,2.33-1.36,3.61-4.3,3.03-6.93-.52-2.36-3.07-5.01-5.52-5.47-2.57-.49-5.64,2.06-6.62,4.25Z"></path></g><g id="character-2"><path class="cls-5" d="M410.25,229.49c.51,6.66-.31,14.28-5.57,18.39-6.53,5.11-16.07,2.12-23.41-1.72-22.17-11.61-41.02-29.49-53.77-51.02-.68-1.16-1.34-2.68-.53-3.75,1.27-1.69,3.87,.02,5.21,1.65,13.84,16.94,31.44,30.8,51.15,40.29,3.3,1.59,7.68,2.91,10.28,.32,1.99-1.98,1.78-5.21,1.31-7.97-1.75-10.21-5.21-20.12-10.18-29.2,2.9-1.37,8.46-5.5,11.73-4.23,2.98,1.16,5.73,8.69,6.98,11.37,3.8,8.13,6.14,16.93,6.83,25.88Z"></path><path class="cls-4" d="M388.58,164.4c-4.14-3.62-10.05-4.76-15.5-3.98-5.45,.78-10.51,3.28-15.14,6.24-1.9,1.21-4,3.19-3.25,5.32,.71,2.03,3.4,2.37,5.55,2.36,4.32-.02,8.64-.05,12.96-.07-1.64,.53-3.32,1.07-4.67,2.14-1.35,1.07-2.32,2.79-2.02,4.48,.4,2.25,2.92,3.61,5.2,3.53s4.38-1.24,6.37-2.36c-.54,4.96-.3,11.46,4.77,14.13,4.18,2.2,7.47-.21,9.5-3.98,4.4-8.18,3.47-21.5-3.76-27.81Z"></path><path class="cls-6" d="M373.24,401.98c1.32-2.14,3.23-3.91,5.47-5.06-22.33-33.73-40.61-70.96-46.82-110.93,.11,.69-11.17,4.29-12.2,5.22-3.11,2.8,.14,7.35,1.43,10.57,3.37,8.37,6.93,16.66,10.68,24.87,7.6,16.62,15.99,32.88,25.12,48.71,5.2,9.02,10.64,17.9,16.32,26.62Z"></path><g><path class="cls-4" d="M343.44,152.24c1.08,1.83,2.88,3.3,4.98,3.66,2.09,.36,4.44-.53,5.5-2.37,1.07-1.84,.54-4.52-1.3-5.6-1.36-.79-3.12-.62-4.54,.06-1.42,.68-2.57,1.81-3.68,2.93"></path><path class="cls-6" d="M324.25,90.66c-3.43,.62-6.4,3.18-8.18,6.28-1.78,3.1-2.49,6.7-2.69,10.23-.51,8.84,2.1,17.7,7.24,24.59,2.27,3.04,5.39,5.87,9.21,5.87,4.96,0,8.87-4.7,11.03-9.36,3.22-6.92,5.76-17.15,1.74-23.91-3.58-6.02-10.43-15.14-18.35-13.69Z"></path><path class="cls-4" d="M349.63,150.43c-4.67,9.86-11,19.13-19.59,25.87-3.31,2.6-7.81,4.86-11.56,2.95-3.23-1.64-4.36-5.62-5.09-9.16-1.71-8.28-3.03-16.71-2.65-25.16,.38-8.45,2.54-16.97,7.32-23.94,4.78-6.98,12.36-12.25,20.76-13.16,7-.75,20.71,2.98,21.43,11.67,.37,4.38-2.86,10.56-4.23,14.66-1.85,5.53-3.9,11-6.4,16.27Z"></path><path class="cls-6" d="M329.95,103.19c-3.8,1.32-8.13,3.71-8.26,7.73-.08,2.35,1.39,4.45,2.9,6.25,8.65,10.29,21.18,17.22,34.49,19.08,13.31,1.86,27.26-1.37,38.4-8.9,4.28-2.89,11.8-9.08,9.44-15.13-1.91-4.9-9.6-7.01-13.99-8.57-12.99-4.63-26.98-6.39-40.71-5.18-7.58,.66-15.08,2.23-22.27,4.72Z"></path><path class="cls-6" d="M334.73,145c.64-.85,.98-2.19,.17-2.89-.6-.51-1.56-.37-2.18,.12-.62,.49-.99,1.22-1.33,1.93-.22,.45-.44,.91-.49,1.4-.05,.49,.09,1.04,.49,1.34,.49,.37,1.22,.26,1.72-.1,.5-.36,.82-.91,1.13-1.44"></path><path class="cls-6" d="M343.41,148.17c.77-.51,.67-1.88-.16-2.28-.65-.31-1.45-.03-1.96,.48-.51,.51-.78,1.2-1.05,1.87-.21,.53-.42,1.07-.37,1.64,.05,.56,.45,1.14,1.01,1.18,.61,.05,1.09-.49,1.39-1.02,.3-.53,.58-1.13,1.13-1.39"></path><path class="cls-4" d="M317.58,134.75c1.64-2.65,.88-6.52-1.65-8.35-2.53-1.83-6.44-1.35-8.44,1.04-2.01,2.39-1.81,6.32,.42,8.5,2.24,2.18,6.17,2.27,8.51,.2"></path><path class="cls-6" d="M324.55,164.68c.78,.76,1.75,1.53,1.81,2.62,.04,.77-.42,1.51-1.06,1.93s-1.43,.57-2.2,.56c-2.45-.03-4.8-1.67-5.67-3.96-.88-2.29-.22-5.08,1.58-6.74,1.74-1.61,2.44-.22,2.97,1.37,.52,1.59,1.38,3.04,2.58,4.22Z"></path></g><path class="cls-1" d="M319.13,184.3c-4.87,.95-7.77,5.85-9.95,10.31-12.67,25.95-21.78,53.54-28.39,81.65-1.07,4.57-1.89,9.97,1.25,13.46,3.3,3.66,9.07,3.17,13.93,2.39,8.51-1.37,17.01-2.73,25.52-4.1,4.5-.72,9.04-1.46,13.26-3.19s8.13-4.59,10.26-8.61c3.12-5.89,1.94-13.04,.67-19.59-3.01-15.65-6.03-31.29-9.04-46.94-1.69-8.8-3.56-28.1-17.51-25.37Z"></path><path class="cls-6" d="M336.29,271.23c5.99-1.32,13.15-1.35,17.21,3.25,4.16,4.71,3.1,11.96,1.22,17.96-8.44,26.88-27.82,48.71-46.68,69.65-1.35-1.98-2.71-3.95-4.06-5.93,8.77-11.29,17.18-22.85,25.23-34.66,5.16-7.57,10.23-15.4,12.8-24.2,.62-2.12,1.04-4.56-.17-6.41-1.21-1.84-3.74-2.43-5.89-1.97s-4.01,1.77-5.78,3.09c-3.35,2.49-6.63,5.14-10.41,6.91-3.78,1.77-8.2,2.58-12.15,1.23-3.25-1.12-8.18-5.66-6.73-9.65,.72-1.97,1.48-1.45,3.19-2.09,2.15-.81,3.15-1.36,4.95-2.95,7.82-6.92,17.04-11.95,27.28-14.21Z"></path><path class="cls-5" d="M296.83,356.18c-2.23,.11-3.92,2.1-3.72,4.32,.9,10.23,3.29,20.33,7.07,29.87,.32,.82,1.05,1.81,1.85,1.44,.5-.23,.63-.86,.71-1.41,.84-6.28,1.68-12.56,2.52-18.84,.38-2.88,1.82-7.92,2.26-12.18,.29-2.79-2.35-5-5.05-4.23-1.86,.53-3.7,.92-5.64,1.02Z"></path><path class="cls-2" d="M319.93,298.96c-.18,0-.36-.1-.45-.28-.12-.25-.02-.55,.22-.67,4.43-2.21,8.58-4.96,12.34-8.17,.21-.18,.53-.16,.71,.06,.18,.21,.16,.53-.05,.7-3.83,3.27-8.05,6.06-12.55,8.31-.07,.04-.15,.05-.22,.05Z"></path><path class="cls-2" d="M329.48,321.35c-.09,0-.18-.02-.27-.08-.23-.15-.3-.46-.16-.69l7.63-12.09c.15-.23,.46-.3,.69-.16,.23,.15,.3,.46,.16,.69l-7.63,12.09c-.09,.15-.26,.23-.42,.23Z"></path><path class="cls-2" d="M333.99,331.85c-.1,0-.21-.03-.3-.1-.22-.16-.27-.48-.11-.7,2.35-3.2,4.65-6.5,6.85-9.79,.15-.23,.46-.29,.69-.14,.23,.15,.29,.46,.14,.69-2.2,3.31-4.51,6.61-6.87,9.83-.1,.13-.25,.2-.4,.2Z"></path><g><path class="cls-6" d="M334.05,227.36c-.06-1.28-.09-2.65,.58-3.74,.85-1.38,2.57-1.91,4.13-2.33,6.72-1.81,13.44-3.62,20.3-4.82,2.57-.45,5.63-.66,7.37,1.28,1.35,1.51,1.36,3.76,1.29,5.79-.36,10.46-.8,21.24-5.19,30.75-1.43,3.1-3.39,6.13-6.36,7.8-1.82,1.02-3.9,1.46-5.95,1.89-2.41,.5-4.82,1.01-7.24,1.51-2.09,.44-4.43,.83-6.22-.32-1.43-.92-2.16-2.67-2.27-4.37-.13-2.04,.64-3.94,.76-5.95,.18-2.83-.23-5.8-.36-8.64-.28-6.28-.57-12.56-.85-18.85Z"></path><path class="cls-2" d="M340.31,260.19c-.27,0-.5-.22-.5-.49l-.47-30.43c-.02-1.06-.04-2.39,.52-3.53,1-2.02,3.32-2.74,5.42-3.26,5.78-1.42,11.66-2.75,17.49-3.95,.27-.05,.54,.12,.59,.39,.05,.27-.12,.53-.39,.59-5.81,1.19-11.68,2.52-17.45,3.94-1.88,.46-3.95,1.09-4.76,2.73-.46,.92-.44,2.06-.42,3.07l.47,30.43c0,.28-.22,.5-.49,.51h0Z"></path></g><path class="cls-4" d="M326.24,243.23c1.29-2.43,3.76-4.87,6.4-4.11,2.5,.72,3.4,3.92,2.91,6.47-.49,2.55-1.91,4.85-2.42,7.4,8.12-2.55,16.24-5.1,24.37-7.65,1.63-.51,3.29-1.03,5-1.04,1.71-.01,3.5,.56,4.58,1.88,1.86,2.29,.91,5.81-.9,8.14s-4.32,4.09-5.91,6.57c-1.55,2.42-2.09,5.36-3.48,7.88-2.85,5.18-9.04,7.89-14.95,7.9-5,.01-13.5-1.5-16.55-6.01-2.87-4.24-2.34-12.33-1.91-17.18,.32-3.56,1.17-7.09,2.85-10.26Z"></path><path class="cls-2" d="M337.53,265.93c-.4,0-.8,0-1.2-.01-.28,0-.5-.23-.49-.51,0-.28,.24-.5,.51-.49,8.08,.16,16.3-1.34,23.79-4.33,.25-.1,.55,.02,.65,.28,.1,.26-.02,.55-.28,.65-7.25,2.9-15.16,4.41-22.98,4.41Z"></path><path class="cls-5" d="M317.77,189.66c-.48,2.15-1.95,3.91-3.35,5.61-6.51,7.91-12.45,16.27-17.78,25.01-4.04,6.63-7.77,13.59-9.53,21.16-1.76,7.57-1.4,15.87,2.41,22.65,3.8,6.77,12.71,15.12,19.17,10.81,2.9-1.93,10.91-9.07,13.67-15.87,4.68,6.66,9.37,13.32,14.05,19.99-7.97,5-16.11,10.08-25.22,12.4-9.12,2.33-19.54,1.5-26.85-4.44-10.45-8.49-11.31-24.17-8.84-37.4,2.73-14.64,8.53-28.69,16.81-41.07,4.21-6.3,9.31-11.5,14.21-17.2,2.18-2.54,13.84-13.11,11.25-1.66Z"></path><path class="cls-5" d="M371.17,398.94c-1,3.18-.7,6.98,1.61,9.38,1.92,1.99,4.82,2.66,7.57,2.98,8.8,1.01,17.9-.74,25.7-4.95,.7-.38,1.45-.84,1.69-1.6,.53-1.67-1.66-2.84-3.38-3.14-5.07-.88-10.29-.81-15.28-2.05-4.94-1.23-6.87-4.26-10.72-6.8-3.85-2.54-6.11,2.78-7.19,6.18Z"></path><path class="cls-2" d="M392.61,176.11c-.13,0-.26-.05-.36-.15-4.89-5.08-13.63-5.61-19.09-1.15-.21,.17-.53,.14-.7-.07-.17-.21-.14-.53,.07-.7,5.85-4.78,15.21-4.21,20.44,1.23,.19,.2,.19,.52-.01,.71-.1,.09-.22,.14-.35,.14Z"></path></g><g id="plant"><g id="flower"><path class="cls-6" d="M392.47,304.66c.04-1.38,.3-2.96,1.46-3.7,1.69-1.08,3.83,.35,5.22,1.79,6.88,7.16,10.98,16.56,13.7,26.11,.34,1.21,.65,2.57,.04,3.66-1.69,2.98-9.77-4.23-11.34-5.78-3.7-3.65-6.47-8.26-7.93-13.25-.84-2.86-1.25-5.85-1.15-8.83Z"></path><path class="cls-6" d="M423.74,313.24c3.83-6.36,9.3-11.82,15.97-15.06,1.86-.9,4.41-1.51,5.76,.07,1.07,1.24,.72,3.12,.22,4.68-3.63,11.48-11.68,21.06-20.66,29.08-1.14,1.02-2.34,2.04-3.77,2.59-1.48,.56-4.13,.71-4.62-1.14-.45-1.69,1-5.16,1.46-6.83,1.29-4.68,3.12-9.23,5.63-13.4Z"></path><path class="cls-6" d="M418.1,319.95c.87-6.48,1.95-12.9,3.31-19.2,2.07-9.61,6.3-28.33,7.14-16.69-1.88,8.16-3.7,16.34-5.48,24.55-3.3,15.24-6.45,30.78-6.8,46.74-.03,1.45-.04,2.93-.37,4.3s-1.03,2.65-2,3c-.78-3.09-.13-6.4,.18-9.62,.36-3.79,.77-7.57,1.22-11.34,.86-7.27,1.83-14.51,2.81-21.75Z"></path><path class="cls-6" d="M413.64,359.72c.22,.97,.55,2.09,1.24,2.31,.66,.21,1.3-.59,1.51-1.52s.08-1.93-.04-2.89c-2.58-20.01-5.16-40.02-7.74-60.03-.13-1-.27-2.04-.68-2.86-.64-1.27-2.2-1.63-2.47,.26-.12,.86,.7,3.16,.76,4.21,.28,4.97,.39,9.94,.76,14.9,.73,9.9,1.91,19.74,3.53,29.42,.91,5.46,1.96,10.86,3.15,16.21Z"></path><path class="cls-1" d="M425.23,266.82c1.86-1.31,3.99-2.15,6.11-2.99,.65-.26,1.35-.52,2.05-.39,1.21,.23,1.87,1.52,2.24,2.69,1.12,3.44,1.35,7.16,.67,10.71-.42,2.18-1.35,4.51-3.35,5.48-1.61,.78-3.56,.48-5.21-.23-3.65-1.57-5.16-4.48-5.95-8.19-.67-3.15,.82-5.24,3.44-7.08Z"></path><path class="cls-4" d="M409.71,290.4c-.9,1.76-2.39,3.3-4.28,3.86-2.54,.74-5.38-.49-7.02-2.57-1.63-2.08-2.19-4.85-2.06-7.49,.13-2.64,.88-5.21,1.63-7.74,.42-1.41,1.05-3.04,2.47-3.4,1.3-.33,2.56,.6,3.54,1.52,2.29,2.17,4.27,4.67,5.86,7.39,1.74,2.96,1.46,5.33-.14,8.43Z"></path><path class="cls-4" d="M415.36,285.08c-.59-2.84-.38-5.79-.05-8.67,.52-4.52,1.43-9.19,4.17-12.83,.72-.96,1.77-1.92,2.97-1.75,1.13,.16,1.87,1.24,2.41,2.25,1.91,3.59,3.11,7.56,3.51,11.61,3.63-1.63,7.57-2.56,11.54-2.74,1.69-.08,3.6,.08,4.69,1.38,1.29,1.54,.76,3.88-.06,5.72-2.35,5.33-6.43,9.45-11.32,12.52-4.16,2.62-8.43,2.48-12.79,.11-2.8-1.52-4.45-4.55-5.07-7.58Z"></path></g><g id="flower-2"><path class="cls-6" d="M127.71,322.09c.23-1.86,.21-4.02-1.2-5.25-2.03-1.78-5.19-.32-7.34,1.32-10.67,8.15-18.07,19.89-23.68,32.09-.71,1.54-1.4,3.3-.8,4.89,1.64,4.33,13.92-3.64,16.34-5.39,5.7-4.12,10.34-9.71,13.32-16.08,1.71-3.65,2.87-7.57,3.35-11.57Z"></path><path class="cls-6" d="M90.3,353.95c-3.5-8.51-9.17-16.24-16.74-21.47-2.12-1.46-5.12-2.68-7.07-1-1.54,1.32-1.47,3.69-1.16,5.7,2.28,14.75,10.35,28.02,19.84,39.54,1.21,1.47,2.48,2.95,4.14,3.89,1.71,.97,4.93,1.65,5.88-.52,.87-1.99-.25-6.52-.5-8.64-.7-5.98-2.09-11.9-4.38-17.48Z"></path><path class="cls-6" d="M96.2,360.44c.16-8.84,.05-17.64-.48-26.35-.8-13.27-2.6-39.16-6.11-23.77,.83,11.29,1.59,22.61,2.28,33.94,1.28,21.05,2.3,42.46-.52,63.87-.26,1.94-.54,3.92-.39,5.83s.83,3.75,2.06,4.43c1.68-3.97,1.49-8.53,1.74-12.89,.3-5.14,.52-10.28,.7-15.41,.35-9.89,.53-19.77,.72-29.65Z"></path><path class="cls-1" d="M83.21,303.36c-1.48,3.49-3.26,6.93-5.94,9.62-2.67,2.69-6.36,4.57-10.14,4.36-6.41-.35-11.33-6.88-11.3-13.3,.04-6.42,4.07-12.3,9.25-16.09,5.18-3.8,11.4-5.84,17.55-7.67-10.59-.02-21.08-4.87-27.95-12.93-2.27-2.66-4.21-5.83-4.36-9.32-.21-4.92,3.47-9.54,8.13-11.13,4.66-1.59,9.99-.46,14.09,2.28,4.1,2.73,7.08,6.9,9.15,11.38s3.29,9.28,4.51,14.06c1.6-5.77,3.31-11.76,7.27-16.26,3.95-4.5,10.84-7.03,16.1-4.16,4.18,2.28,6.25,7.59,5.26,12.25s-4.67,8.51-9.08,10.3c-4.42,1.79-9.45,1.67-14.02,.31,5.02,3.38,10.08,6.79,14.32,11.12s7.65,9.68,8.65,15.65c.7,4.16-.33,9.27-4.19,10.96-2.12,.93-4.64,.57-6.69-.51-2.05-1.07-3.69-2.78-5.14-4.58-3.04-3.77-5.39-8.07-6.96-12.65-.87-2.54-1.23-11.86-3.17-12.91-1.48,6.58-2.68,12.96-5.34,19.23Z"></path><path class="cls-4" d="M94.16,315.95c-2.48,3.88-6.83,7.44-11.28,6.25-2.7-.72-4.72-3.09-5.65-5.72-.93-2.63-.92-5.5-.69-8.28,.78-9.35,3.99-18.49,9.21-26.28-3.53,3.66-7.17,7.26-11.45,9.99-4.28,2.73-9.29,4.55-14.37,4.28-5.07-.26-10.16-2.84-12.68-7.25-2.52-4.41-1.91-10.61,1.95-13.91,3.1-2.65,7.51-3.08,11.6-2.96,7.66,.22,15.27,1.96,22.27,5.07-4.64-6.59-7.47-14.45-8.11-22.49-.34-4.32,.34-9.39,4.04-11.64,2.81-1.71,6.59-1.11,9.31,.73,4.7,3.18,6.55,9.42,6,15.06-.55,5.65-3.1,10.88-5.66,15.95,4.88-3.73,11.2-5.65,17.29-4.84s11.82,4.49,14.72,9.9c1.39,2.59,2.1,5.85,.68,8.42-2.07,3.75-7.35,4.12-11.53,3.17-7.36-1.66-12.51-5.81-17.9-10.73,.18,2.32,3.2,5.37,4.18,7.7,1.25,2.97,2.02,6.13,2.3,9.34,.55,6.32-.81,12.85-4.25,18.22Z"></path><path class="cls-6" d="M97.55,276.69c1.04,3.38,.56,7.14-1.03,10.29-1.61,3.19-4.59,5.92-8.15,6.23-3.11,.27-6.2-1.4-8.07-3.9-1.87-2.5-2.61-5.72-2.51-8.83,.11-3.29,1.16-6.64,3.36-9.08,5.8-6.43,14.14-2.02,16.39,5.29Z"></path></g><path class="cls-7" d="M457.55,351.04c1.05-2.48,1.29-5.95-1.04-7.3-1.47-.84-3.32-.42-4.88,.23-5,2.1-8.97,6.5-10.57,11.68,1.56-7.84,2.42-15.82,2.58-23.81,.04-1.82,.03-3.68-.56-5.41-.59-1.73-1.86-3.32-3.61-3.82-3.33-.95-6.38,2.23-7.95,5.32-3.35,6.62-4.14,14.51-2.17,21.66-1.34-2.28-2.79-4.66-5.08-5.97-2.29-1.32-5.7-1.11-7.07,1.16-.91,1.49-.7,3.4-.28,5.09,1.08,4.36,3.4,8.41,6.61,11.55-1.7-1.38-3.46-2.8-5.57-3.4-2.11-.6-4.67-.16-5.95,1.62,1.32-2.44,1.98-5.38,1.16-8.03-.82-2.65-3.39-4.85-6.16-4.65s-5.13,3.28-4.1,5.87c1.44-6.38-.57-13.42-5.16-18.08-1.21-1.23-2.63-2.32-4.29-2.77s-3.6-.17-4.82,1.04c-1.49,1.49-1.56,3.85-1.39,5.95,.55,6.62,2.58,13.12,5.89,18.88-1.1-1.78-2.25-3.61-3.96-4.82-1.71-1.21-4.13-1.67-5.89-.54-1.94,1.25-2.41,4.04-1.6,6.2,.81,2.16,2.61,3.79,4.48,5.15,1.86,1.36,3.88,2.56,5.44,4.26-3.17-2.27-7.3-3.15-11.11-2.35-1.56,.32-3.31,1.24-3.4,2.83-.12,2.14,2.67,3.03,4.8,3.22,21.91,1.96,44.04,3.91,65.85,1.06,2.05-.27,4.16-.6,5.94-1.64,1.79-1.04,3.21-2.97,3.06-5.03-.19-2.64-2.88-4.55-5.52-4.78-2.25-.2-4.26,.64-6.39,1.11,5.58-2.15,10.31-5.83,12.7-11.47Z"></path><path class="cls-8" d="M434.86,365.09c-.05,0-.1,0-.16-.03-.26-.09-.4-.37-.32-.63,3.56-10.76,4.27-22.32,2.05-33.44-.05-.27,.12-.53,.39-.59,.26-.06,.53,.12,.59,.39,2.26,11.29,1.54,23.03-2.08,33.95-.07,.21-.26,.34-.47,.34Z"></path><path class="cls-8" d="M441.47,360.37c-.12,0-.25-.05-.34-.14-.2-.19-.21-.51-.02-.71,2.95-3.1,5.5-6.57,7.57-10.32,.13-.24,.44-.33,.68-.2,.24,.13,.33,.44,.2,.68-2.11,3.82-4.71,7.36-7.72,10.53-.1,.1-.23,.16-.36,.16Z"></path><path class="cls-8" d="M430.75,368.28c-.27,0-.49-.21-.5-.48-.22-7.39-3.47-14.5-8.9-19.52-.2-.19-.22-.5-.03-.71,.19-.2,.5-.22,.71-.03,5.63,5.19,8.99,12.56,9.22,20.22,0,.28-.21,.51-.48,.52h-.02Z"></path><path class="cls-8" d="M404.31,367.25c-.24,0-.46-.18-.49-.43-1.37-9.21-4.3-18.05-8.7-26.25-.13-.24-.04-.55,.2-.68,.24-.13,.55-.04,.68,.2,4.46,8.31,7.42,17.25,8.81,26.58,.04,.27-.15,.53-.42,.57-.02,0-.05,0-.07,0Z"></path><path class="cls-8" d="M407.07,363.82c-.24,0-.45-.17-.49-.42-.73-4.38,.35-8.95,2.97-12.54,.16-.22,.48-.27,.7-.11,.22,.16,.27,.48,.11,.7-2.43,3.32-3.47,7.73-2.79,11.79,.05,.27-.14,.53-.41,.58-.03,0-.06,0-.08,0Z"></path><path class="cls-8" d="M398.4,367.26c-.14,0-.28-.06-.38-.17l-8.67-9.91c-.18-.21-.16-.52,.05-.71,.21-.18,.52-.16,.71,.05l8.67,9.91c.18,.21,.16,.52-.05,.71-.09,.08-.21,.12-.33,.12Z"></path><path class="cls-7" d="M22.89,394.02c-1.72-4.05-2.11-9.72,1.7-11.92,2.39-1.38,5.43-.69,7.97,.38,8.16,3.43,14.65,10.61,17.25,19.07-2.54-12.8-3.95-25.83-4.21-38.87-.06-2.98-.05-6.02,.91-8.83,.96-2.82,3.04-5.42,5.9-6.24,5.44-1.56,10.42,3.64,12.97,8.69,5.48,10.82,6.76,23.69,3.54,35.37,2.2-3.72,4.55-7.6,8.3-9.76,3.74-2.15,9.3-1.8,11.54,1.89,1.48,2.44,1.14,5.55,.45,8.31-1.77,7.12-5.55,13.73-10.79,18.86,2.77-2.26,5.65-4.58,9.09-5.55,3.44-.98,7.63-.26,9.72,2.64-2.16-3.99-3.24-8.78-1.89-13.11,1.34-4.33,5.54-7.91,10.06-7.6,4.52,.31,8.37,5.36,6.7,9.58-2.35-10.41,.93-21.92,8.42-29.52,1.97-2,4.29-3.78,7-4.53,2.71-.74,5.88-.28,7.87,1.7,2.44,2.42,2.55,6.29,2.26,9.72-.91,10.82-4.22,21.42-9.62,30.83,1.8-2.91,3.68-5.89,6.47-7.87,2.79-1.98,6.75-2.73,9.62-.88,3.17,2.04,3.94,6.59,2.61,10.12-1.33,3.53-4.27,6.19-7.31,8.41-3.04,2.22-6.33,4.18-8.88,6.95,5.17-3.71,11.92-5.14,18.15-3.84,2.54,.53,5.41,2.03,5.55,4.62,.2,3.49-4.35,4.94-7.84,5.26-35.78,3.19-71.9,6.38-107.51,1.73-3.35-.44-6.79-.98-9.7-2.68-2.92-1.7-5.24-4.84-5-8.22,.3-4.32,4.71-7.42,9.02-7.8,3.67-.33,6.95,1.05,10.43,1.81-9.11-3.5-16.83-9.52-20.74-18.73Z"></path><path class="cls-8" d="M59.94,416.64c-.21,0-.41-.13-.47-.34-5.88-17.79-7.05-36.9-3.38-55.27,.05-.27,.32-.45,.59-.39,.27,.05,.45,.32,.39,.59-3.64,18.2-2.48,37.14,3.35,54.76,.09,.26-.06,.55-.32,.63-.05,.02-.11,.03-.16,.03Z"></path><path class="cls-8" d="M49.15,408.94c-.13,0-.26-.05-.36-.16-4.9-5.14-9.13-10.9-12.56-17.12-.13-.24-.05-.55,.2-.68,.24-.13,.55-.05,.68,.2,3.39,6.14,7.57,11.83,12.41,16.92,.19,.2,.18,.52-.02,.71-.1,.09-.22,.14-.34,.14Z"></path><path class="cls-8" d="M66.65,421.85h-.01c-.28,0-.49-.24-.49-.52,.38-12.42,5.83-24.37,14.96-32.79,.2-.19,.52-.17,.71,.03,.19,.2,.17,.52-.03,.71-8.93,8.24-14.27,19.94-14.64,32.09,0,.27-.23,.48-.5,.48Z"></path><path class="cls-8" d="M109.82,420.17s-.05,0-.07,0c-.27-.04-.46-.29-.42-.57,2.26-15.2,7.08-29.76,14.35-43.29,.13-.24,.43-.33,.68-.2,.24,.13,.33,.43,.2,.68-7.21,13.43-12,27.89-14.24,42.97-.04,.25-.25,.43-.49,.43Z"></path><path class="cls-8" d="M105.32,414.56s-.06,0-.08,0c-.27-.05-.46-.3-.41-.58,1.14-6.81-.55-13.91-4.62-19.48-.16-.22-.11-.54,.11-.7,.22-.16,.54-.12,.7,.11,4.23,5.79,5.98,13.16,4.8,20.24-.04,.24-.25,.42-.49,.42Z"></path><path class="cls-8" d="M119.47,420.18c-.12,0-.23-.04-.33-.12-.21-.18-.23-.5-.05-.71l14.15-16.17c.18-.21,.5-.23,.71-.05,.21,.18,.23,.5,.05,.71l-14.15,16.17c-.1,.11-.24,.17-.38,.17Z"></path></g><g id="character_1"><path class="cls-2" d="M153.99,115.04c-14.4,20.55-15.56,49.56-2.86,71.2,12.7,21.64,38.59,34.77,63.56,32.22,12.64-1.29,24.97-6.39,34.43-14.87,17.34-15.53,23.43-41.57,17.32-64.03-5.66-20.78-25.06-47.69-47.52-52.06-23.95-4.66-51.23,7.99-64.93,27.54Z"></path><path class="cls-1" d="M193.93,185.71c4.05-4.68,10.7-7.79,16.72-5.99,3.49,1.04,6.32,3.57,8.62,6.32,3.59,4.28,6.23,9.3,7.69,14.63,.49,1.79,.85,3.72,.2,5.45-1.25,3.34-5.45,4.47-9.05,5.13-5.94,1.09-12,2.19-17.99,1.4-5.1-.68-13.99-3.84-14.19-9.87-.17-5.18,4.71-13.27,7.99-17.07Z"></path><g><path class="cls-4" d="M197.25,145.79c-1.73,.81-3.83,1.01-5.6,.26-1.76-.75-3.08-2.55-2.97-4.41,.12-1.86,1.86-3.57,3.79-3.46,1.42,.08,2.66,1.06,3.39,2.25,.73,1.19,1.03,2.57,1.31,3.93"></path><path class="cls-6" d="M242.63,110.09c2.27,2.12,3.24,5.44,3.02,8.57-.21,3.13-1.48,6.11-3.1,8.79-4.06,6.71-10.47,11.93-17.8,14.46-3.23,1.12-7.01,1.67-9.9-.19-3.75-2.41-4.33-7.76-3.63-12.21,1.05-6.63,4.26-15.35,10.69-18.33,5.72-2.66,15.47-6,20.72-1.09Z"></path><path class="cls-4" d="M193.5,141.46c-1.42,9.49-1.29,19.34,1.8,28.45,1.19,3.51,3.45,7.36,7.24,7.78,3.26,.37,6.11-1.99,8.44-4.23,5.44-5.23,10.67-10.75,14.62-17.11,3.95-6.36,6.59-13.65,6.49-21.07-.1-7.43-3.18-14.97-9.06-19.72-4.9-3.95-17.12-7.89-22.03-1.89-2.47,3.03-3.14,9.12-4.17,12.78-1.38,4.94-2.57,9.94-3.33,15.01Z"></path><path class="cls-6" d="M232.05,116.47c2.21,2.81,4.28,6.67,2.36,9.67-1.12,1.76-3.28,2.58-5.33,3.16-11.68,3.32-24.62,2.29-35.6-2.82-10.97-5.11-19.88-14.27-24.51-25.18-1.78-4.2-4.35-12.38,.47-15.66,3.91-2.66,10.76-.46,14.86,.53,12.12,2.93,23.56,8.45,33.32,16.01,5.38,4.17,10.26,8.97,14.43,14.28Z"></path><path class="cls-6" d="M207.46,144.73c-.05-.93,.37-2.08,1.32-2.2,.71-.09,1.36,.49,1.59,1.15,.23,.66,.13,1.37,.03,2.06-.06,.43-.13,.87-.33,1.26-.21,.39-.59,.72-1.04,.74-.56,.03-1.05-.41-1.24-.91-.2-.5-.16-1.06-.13-1.6"></path><path class="cls-6" d="M199.32,142.83c-.33-.75,.44-1.71,1.27-1.59,.64,.09,1.11,.69,1.24,1.31,.13,.62,0,1.26-.15,1.87-.11,.48-.22,.99-.54,1.37-.32,.39-.91,.61-1.36,.37-.48-.26-.58-.89-.54-1.42,.04-.53,.13-1.11-.15-1.57"></path><path class="cls-4" d="M225.55,145.58c.09-2.74,2.61-5.19,5.43-5.3,2.82-.11,5.53,2.14,5.85,4.87,.32,2.72-1.8,5.51-4.58,6.01-2.78,.5-5.8-1.34-6.52-3.99"></path><path class="cls-6" d="M205.41,163.41c-.97,.18-2.09,.27-2.68,1.03-.42,.54-.44,1.31-.17,1.93s.8,1.11,1.38,1.48c1.86,1.17,4.46,1.11,6.27-.14,1.81-1.25,2.71-3.61,2.19-5.7-.51-2.02-1.73-1.35-2.93-.44s-2.57,1.56-4.06,1.83Z"></path></g><path class="cls-2" d="M207.23,209.33c-.36,0-.7-.19-.88-.53-4.37-8.24-6.48-17.48-6.09-26.74,.02-.55,.51-.97,1.04-.96,.55,.02,.98,.49,.96,1.04-.37,8.9,1.66,17.79,5.86,25.71,.26,.49,.07,1.09-.41,1.35-.15,.08-.31,.12-.47,.12Z"></path><path class="cls-2" d="M204.64,193.76c-.25,0-.49-.09-.68-.27-.4-.38-.42-1.01-.05-1.41l8.8-9.41c.38-.4,1.01-.42,1.41-.05,.4,.38,.42,1.01,.05,1.41l-8.8,9.41c-.2,.21-.46,.32-.73,.32Z"></path></g></svg>